<svg width="18" height="9" viewBox="0 0 18 9" fill="none" xmlns="http://www.w3.org/2000/svg">
<path d="M4.334 8.132C3.234 8.132 2.376 7.82767 1.76 7.219C1.15133 6.61033 0.847 5.74133 0.847 4.612V0.299999H2.629V4.546C2.629 5.92467 3.201 6.614 4.345 6.614C4.90233 6.614 5.32767 6.449 5.621 6.119C5.91433 5.78167 6.061 5.25733 6.061 4.546V0.299999H7.821V4.612C7.821 5.74133 7.513 6.61033 6.897 7.219C6.28833 7.82767 5.434 8.132 4.334 8.132ZM15.0418 6.35H11.4668L10.7848 8H8.95881L12.3908 0.299999H14.1508L17.5938 8H15.7238L15.0418 6.35ZM14.4808 4.997L13.2598 2.049L12.0388 4.997H14.4808Z" fill="#00FEFF"/>
</svg>
